<svg viewBox="0 0 179 63" width="80" height="28" class=" block fill-current"><path d="M26.143 14.382v17.02c0 4.47 2.24 6.92 6.06 6.92 3.41 0 6.27-2.09 6.54-6.3v-17.64h8.4v29.32c.01 6.92-3.1 12.77-8.53 16.04-2.83 1.7-6.03 2.551-9.3 2.551-3.2 0-6.48-.81-9.55-2.44l3.94-7.42c3.58 1.9 7.53 1.94 10.58.11 2.88-1.73 4.47-4.87 4.46-8.83v-1.68c-2.21 3.04-5.51 4.11-8.88 4.11-6.89 0-11.86-4.66-12.08-11.58l-.01-.48v-19.7h8.37zM8.4 0l.25 30.085c0 6.228 1.014 7.807 5.508 7.807l-1.551 8.255C.711 46.147.25 36.108.25 30.115L0 .068 8.4 0zm91.894 13.562c4.06-.01 6.96 1.54 9.01 3.86l.3.35-.01-3.41 8.17-.03.12 30.93-8.17.03-.009-3.41c-2.01 2.49-5.02 4.23-9.28 4.25-8.56.03-15.06-6.94-15.1-16.23-.03-9.29 6.41-16.3 14.97-16.34zm-33.476-.167c8.94 0 15.06 6.61 15.09 16.25 0 .82-.04 1.78-.12 2.48l-.04.33h-22.01c.89 4.47 4.03 6.41 7.98 6.41 2.51 0 5.22-.94 7.39-2.6l.46-.36 4.9 5.36c-3.52 3.22-8.01 4.69-13.23 4.69-9.52 0-16.13-6.45-16.13-16.18 0-9.74 6.41-16.38 15.71-16.38zm99.982.167c6.891 0 11.854 4.665 12.075 11.581l.008.486v19.696h-8.365V28.311c0-4.47-2.243-6.928-6.058-6.928-3.47 0-6.37 2.178-6.56 6.533l-.01.46v16.95h-8.364V14.391h8.14v3.64c2.211-3.289 5.61-4.47 9.134-4.47zm-25.335 0c1.595 0 2.887.202 3.964.538l.394.132-1.25 8.268c-1.378-.606-3.365-.989-5.063-.989-3.749 0-6.36 2.207-6.53 6.507l-.009.452v16.855h-8.364V14.392h8.108v3.384c1.955-2.905 4.936-4.214 8.75-4.214zm-39.6 7.76c-4.9.02-8 3.83-7.98 8.55.02 4.73 3.14 8.51 8.05 8.49 4.77-.02 8-3.67 7.98-8.55-.02-4.89-3.27-8.51-8.05-8.49zm-35.118-.747c-3.79 0-6.07 2.19-6.889 5.78l-.09.42h13.75c-.77-3.96-3.18-6.2-6.77-6.2z"></path></svg>